<?xml version="1.0" standalone="no"?>
<!DOCTYPE svg PUBLIC "-//W3C//DTD SVG 20010904//EN"
 "http://www.w3.org/TR/2001/REC-SVG-20010904/DTD/svg10.dtd">
<svg version="1.0" xmlns="http://www.w3.org/2000/svg"
 width="111.000000pt" height="65.000000pt" viewBox="0 0 111.000000 65.000000"
 preserveAspectRatio="xMidYMid meet">

<g transform="translate(0.000000,65.000000) scale(0.100000,-0.100000)"
fill="#fff" stroke="none">
<path d="M61 606 c-16 -19 -6 -36 20 -36 15 0 20 6 17 22 -4 27 -21 33 -37 14z"/>
<path d="M726 578 c15 -28 38 -48 52 -48 11 0 7 9 -13 30 -29 30 -52 41 -39
18z"/>
<path d="M174 517 c-35 -36 -64 -65 -64 -63 0 2 7 20 15 39 9 23 11 38 5 42
-6 3 -10 -1 -10 -10 0 -8 -18 -52 -41 -96 -22 -45 -37 -84 -33 -88 4 -3 9 -1
11 6 15 43 167 213 190 213 24 0 13 -23 -32 -67 -25 -23 -45 -44 -45 -46 0 -2
14 -2 30 1 33 5 80 -20 80 -43 0 -33 -23 -63 -54 -69 -46 -9 -157 -64 -188
-94 -33 -31 -36 -58 -7 -67 33 -11 139 47 193 105 39 41 53 50 81 50 19 0 35
-5 35 -11 0 -7 9 -9 23 -5 40 12 112 14 124 4 7 -6 21 -7 30 -3 20 8 103 15
103 8 0 -2 -7 -18 -16 -34 -20 -40 -12 -47 15 -13 15 19 31 27 60 29 21 2 61
13 87 24 37 17 49 19 56 9 19 -31 3 -55 -48 -73 -21 -8 -31 -14 -21 -15 59 -1
108 66 84 117 -18 39 16 62 91 61 31 -1 46 -3 32 -6 -14 -2 -30 -8 -36 -13
-18 -15 -9 -66 19 -99 15 -17 30 -44 33 -58 9 -42 14 -50 10 -17 -2 17 -6 39
-10 50 -8 20 -7 20 8 1 9 -11 16 -16 16 -12 0 4 -16 26 -35 49 -53 62 -45 87
28 87 30 1 31 1 13 15 -32 24 -147 20 -180 -6 -14 -11 -26 -29 -26 -40 0 -21
-66 -58 -104 -59 -16 0 -15 4 9 36 38 50 22 55 -27 8 l-41 -39 34 63 c19 34
44 74 57 88 13 14 21 28 17 32 -8 8 -36 -26 -76 -96 -33 -56 -53 -72 -92 -72
-18 0 -27 7 -31 25 -4 14 -10 25 -15 25 -4 0 -20 -11 -35 -25 -18 -17 -39 -25
-62 -25 -19 0 -33 4 -30 9 9 14 -4 41 -20 41 -8 0 -19 -9 -26 -20 -8 -13 -24
-20 -44 -20 -30 0 -31 2 -30 42 1 37 -3 44 -29 57 -16 9 -32 17 -34 18 -2 1 9
16 23 34 28 33 31 69 8 77 -8 2 -43 -25 -78 -61z m652 -129 c0 -13 4 -32 8
-43 4 -11 0 -7 -9 8 -9 16 -14 35 -11 43 8 20 11 18 12 -8z m-452 -43 c3 -9 0
-15 -9 -15 -9 0 -12 6 -9 15 4 8 7 15 9 15 2 0 5 -7 9 -15z m141 -4 c3 -5 1
-12 -5 -16 -5 -3 -10 1 -10 9 0 18 6 21 15 7z m440 -21 c10 -11 16 -20 13 -20
-3 0 -13 9 -23 20 -10 11 -16 20 -13 20 3 0 13 -9 23 -20z m-746 -36 c-44 -46
-126 -94 -161 -94 -35 0 -35 10 0 42 39 37 178 103 191 92 3 -3 -11 -20 -30
-40z"/>
<path d="M342 549 c3 -8 11 -40 18 -71 7 -32 19 -58 25 -58 18 0 -16 132 -35
138 -8 3 -11 -1 -8 -9z"/>
<path d="M434 465 c-15 -20 -23 -39 -19 -43 7 -7 65 55 65 70 0 18 -21 6 -46
-27z"/>
<path d="M584 476 c-10 -26 4 -48 28 -44 17 2 23 10 23 28 0 18 -6 26 -23 28
-13 2 -25 -3 -28 -12z m36 -16 c0 -5 -4 -10 -10 -10 -5 0 -10 5 -10 10 0 6 5
10 10 10 6 0 10 -4 10 -10z"/>
<path d="M297 449 c22 -37 53 -67 53 -50 0 19 -44 81 -58 81 -10 0 -8 -8 5
-31z"/>
<path d="M851 309 c-2 -27 -25 -49 -66 -64 -23 -8 -31 -14 -20 -15 25 0 84 35
91 55 3 8 4 20 1 27 -4 9 -6 8 -6 -3z"/>
<path d="M280 279 c0 -7 -8 -17 -17 -24 -16 -12 -16 -15 10 -40 l27 -28 26 26
26 27 -23 25 c-25 26 -49 33 -49 14z"/>
<path d="M1001 236 c-1 -34 -35 -92 -63 -107 -33 -18 -32 -2 4 31 l33 32 -39
-30 c-37 -29 -41 -30 -67 -16 -47 24 -47 15 0 -11 23 -14 49 -25 56 -25 18 0
73 65 81 94 3 14 4 33 1 43 -3 11 -5 8 -6 -11z"/>
<path d="M680 240 c0 -12 8 -12 35 0 18 8 17 9 -7 9 -16 1 -28 -3 -28 -9z"/>
<path d="M700 225 c0 -7 101 -57 106 -52 2 2 -14 12 -36 22 -22 10 -37 22 -34
26 3 5 -4 9 -15 9 -12 0 -21 -2 -21 -5z"/>
</g>
</svg>
